<svg width="75" height="75" viewBox="0 0 75 75" fill="none" xmlns="http://www.w3.org/2000/svg">
<path d="M59.7753 67.9489C51.6622 73.736 41.5621 76.0999 31.691 74.5221C21.8199 72.9442 12.984 67.5535 7.12206 59.5326C-9.74438 37.2151 5.11314 3.45186 33.1537 0.654197L38.6966 0L36.3839 5.0311C26.097 26.5412 46.0776 51.3381 69.5248 46.2281L75 45.1195L73.1128 50.3301C70.5702 57.4042 65.9194 63.5479 59.7753 67.9489ZM19.3013 12.4423C12.5511 17.2794 8.01435 24.5703 6.68645 32.7155C5.35856 40.8606 7.34795 49.1947 12.2181 55.8893C24.9165 74.128 54.4432 72.5286 64.994 53.0177C59.3334 53.2099 53.7059 52.0871 48.5621 49.7391C43.4184 47.3912 38.9012 43.8834 35.3724 39.4965C31.8435 35.1096 29.401 29.9656 28.2403 24.4762C27.0797 18.9868 27.2331 13.3046 28.6884 7.88446C25.3186 8.85976 22.1434 10.4015 19.3013 12.4423Z" fill="black"/>
</svg>
