<svg width="82" height="82" viewBox="0 0 82 82" fill="none" xmlns="http://www.w3.org/2000/svg">
<path d="M44.4167 13.6667V3.41667C44.4167 1.5375 42.8792 0 41 0C39.1208 0 37.5833 1.5375 37.5833 3.41667V13.6667C37.5833 15.5458 39.1208 17.0833 41 17.0833C42.8792 17.0833 44.4167 15.5458 44.4167 13.6667ZM44.4167 78.5833V68.3333C44.4167 66.4542 42.8792 64.9167 41 64.9167C39.1208 64.9167 37.5833 66.4542 37.5833 68.3333V78.5833C37.5833 80.4625 39.1208 82 41 82C42.8792 82 44.4167 80.4625 44.4167 78.5833ZM17.0833 41C17.0833 39.1208 15.5458 37.5833 13.6667 37.5833H3.41667C1.5375 37.5833 0 39.1208 0 41C0 42.8792 1.5375 44.4167 3.41667 44.4167H13.6667C15.5458 44.4167 17.0833 42.8792 17.0833 41ZM82 41C82 39.1208 80.4625 37.5833 78.5833 37.5833H68.3333C66.4542 37.5833 64.9167 39.1208 64.9167 41C64.9167 42.8792 66.4542 44.4167 68.3333 44.4167H78.5833C80.4625 44.4167 82 42.8792 82 41ZM22.9258 22.9258C24.2583 21.5933 24.2583 19.4408 22.9258 18.1083L16.0925 11.275C14.76 9.9425 12.6075 9.9425 11.275 11.275C9.9425 12.6075 9.9425 14.76 11.275 16.0925L18.1083 22.9258C18.7917 23.6092 19.6458 23.9167 20.5342 23.9167C21.4225 23.9167 22.2767 23.575 22.96 22.9258H22.9258ZM70.7592 70.7592C72.0917 69.4267 72.0917 67.2742 70.7592 65.9417L63.9258 59.1083C62.5933 57.7758 60.4408 57.7758 59.1083 59.1083C57.7758 60.4408 57.7758 62.5933 59.1083 63.9258L65.9417 70.7592C66.625 71.4425 67.4792 71.75 68.3675 71.75C69.2558 71.75 70.11 71.4083 70.7933 70.7592H70.7592ZM16.0925 70.7592L22.9258 63.9258C24.2583 62.5933 24.2583 60.4408 22.9258 59.1083C21.5933 57.7758 19.4408 57.7758 18.1083 59.1083L11.275 65.9417C9.9425 67.2742 9.9425 69.4267 11.275 70.7592C11.9583 71.4425 12.8125 71.75 13.7008 71.75C14.5892 71.75 15.4433 71.4083 16.1267 70.7592H16.0925ZM63.9258 22.9258L70.7592 16.0925C72.0917 14.76 72.0917 12.6075 70.7592 11.275C69.4267 9.9425 67.2742 9.9425 65.9417 11.275L59.1083 18.1083C57.7758 19.4408 57.7758 21.5933 59.1083 22.9258C59.7917 23.6092 60.6458 23.9167 61.5342 23.9167C62.4225 23.9167 63.2767 23.575 63.96 22.9258H63.9258Z" fill="black"/>
<circle cx="40.5064" cy="41.4937" r="24.1627" stroke="black" stroke-width="7"/>
</svg>
