<svg width="343" height="344" viewBox="0 0 343 344" fill="none" xmlns="http://www.w3.org/2000/svg">
<circle cx="210" cy="135" r="27" fill="black"/>
<circle cx="136" cy="135" r="27" fill="black"/>
<circle cx="210" cy="135" r="27" fill="black"/>
<circle cx="280.5" cy="62.5" r="19.5" fill="black"/>
<circle cx="62.5" cy="208.5" r="19.5" fill="black"/>
<circle cx="280.5" cy="280.5" r="19.5" fill="black"/>
<circle cx="62.5" cy="62.5" r="19.5" fill="black"/>
<circle cx="136.5" cy="62.5" r="19.5" fill="black"/>
<circle cx="136.5" cy="9.5" r="9.5" fill="black"/>
<circle cx="210.5" cy="9.5" r="9.5" fill="black"/>
<circle cx="333.5" cy="134.5" r="9.5" fill="black"/>
<circle cx="333.5" cy="208.5" r="9.5" fill="black"/>
<circle cx="280.5" cy="208.5" r="19.5" fill="black"/>
<circle cx="62.5" cy="134.5" r="19.5" fill="black"/>
<circle cx="210.5" cy="62.5" r="19.5" fill="black"/>
<circle cx="210.5" cy="280.5" r="19.5" fill="black"/>
<circle cx="136.5" cy="280.5" r="19.5" fill="black"/>
<circle cx="280.5" cy="134.5" r="19.5" fill="black"/>
<circle cx="62.5" cy="280.5" r="19.5" fill="black"/>
<circle cx="136" cy="209" r="27" fill="black"/>
<circle cx="210" cy="209" r="27" fill="black"/>
<circle cx="9.5" cy="134.5" r="9.5" fill="black"/>
<circle cx="9.5" cy="208.5" r="9.5" fill="black"/>
<circle cx="136.5" cy="334.5" r="9.5" fill="black"/>
<circle cx="210.5" cy="334.5" r="9.5" fill="black"/>
</svg>
